<?xml version="1.0" encoding="UTF-8" standalone="no"?><svg xmlns="http://www.w3.org/2000/svg" xmlns:xlink="http://www.w3.org/1999/xlink" contentStyleType="text/css" height="297px" preserveAspectRatio="none" style="width:557px;height:297px;background:#FFFFFF;" version="1.1" viewBox="0 0 557 297" width="557px" zoomAndPan="magnify"><defs/><g><rect fill="#F1F1F1" height="33.9688" rx="12.5" ry="12.5" style="stroke:#181818;stroke-width:0.5;" width="66" x="289.5" y="82"/><text fill="#000000" font-family="sans-serif" font-size="12" lengthAdjust="spacing" textLength="46" x="299.5" y="103.1387">inflation</text><rect fill="#F1F1F1" height="33.9688" rx="12.5" ry="12.5" style="stroke:#181818;stroke-width:0.5;" width="133" x="7" y="170"/><text fill="#000000" font-family="sans-serif" font-size="12" lengthAdjust="spacing" textLength="113" x="17" y="191.1387">validators rewards</text><rect fill="#F1F1F1" height="33.9688" rx="12.5" ry="12.5" style="stroke:#181818;stroke-width:0.5;" width="130" x="160.5" y="170"/><text fill="#000000" font-family="sans-serif" font-size="12" lengthAdjust="spacing" textLength="110" x="170.5" y="191.1387">development fund</text><rect fill="#F1F1F1" height="33.9688" rx="12.5" ry="12.5" style="stroke:#181818;stroke-width:0.5;" width="133" x="311" y="170"/><text fill="#000000" font-family="sans-serif" font-size="12" lengthAdjust="spacing" textLength="113" x="321" y="191.1387">incentive boosters</text><rect fill="#F1F1F1" height="33.9688" rx="12.5" ry="12.5" style="stroke:#181818;stroke-width:0.5;" width="117" x="352" y="7"/><text fill="#000000" font-family="sans-serif" font-size="12" lengthAdjust="spacing" textLength="97" x="362" y="28.1387">transaction fees</text><rect fill="#F1F1F1" height="33.9688" rx="12.5" ry="12.5" style="stroke:#181818;stroke-width:0.5;" width="47" x="464" y="170"/><text fill="#000000" font-family="sans-serif" font-size="12" lengthAdjust="spacing" textLength="27" x="474" y="191.1387">burn</text><rect fill="#F1F1F1" height="33.9688" rx="12.5" ry="12.5" style="stroke:#181818;stroke-width:0.5;" width="96" x="120.5" y="82"/><text fill="#000000" font-family="sans-serif" font-size="12" lengthAdjust="spacing" textLength="76" x="130.5" y="103.1387">module fees</text><rect fill="#F1F1F1" height="33.9688" rx="12.5" ry="12.5" style="stroke:#181818;stroke-width:0.5;" width="175" x="197" y="258"/><text fill="#000000" font-family="sans-serif" font-size="12" lengthAdjust="spacing" textLength="155" x="207" y="279.1387">governance booster pool</text><rect fill="#F1F1F1" height="33.9688" rx="12.5" ry="12.5" style="stroke:#181818;stroke-width:0.5;" width="159" x="392" y="258"/><text fill="#000000" font-family="sans-serif" font-size="12" lengthAdjust="spacing" textLength="139" x="402" y="279.1387">weekend booster pool</text><!--MD5=[409771fcbfb8aab452f3a1e246ca1167]
    link inflation to validators rewards--><g id="link_inflation_validators rewards"><path d="M289.383,108.35 C267.49,114.512 238.51,123.917 214.5,136 C204.808,140.878 204.27,145.281 194.5,150 C179.119,157.429 161.888,163.672 145.359,168.761 " fill="none" id="inflation-to-validators rewards" style="stroke:#181818;stroke-width:1.0;"/><polygon fill="#181818" points="140.255,170.304,150.0275,171.5278,145.041,168.8568,147.712,163.8702,140.255,170.304" style="stroke:#181818;stroke-width:1.0;"/><text fill="#000000" font-family="sans-serif" font-size="11" lengthAdjust="spacing" textLength="25" x="215.5" y="147.2104">60%</text></g><!--MD5=[162b62db70e8ed72e948783389ba4cf4]
    link inflation to development fund--><g id="link_inflation_development fund"><path d="M317.86,116.056 C314.09,126.763 307.846,140.554 298.5,150 C291.707,156.865 283.339,162.631 274.72,167.394 " fill="none" id="inflation-to-development fund" style="stroke:#181818;stroke-width:1.0;"/><polygon fill="#181818" points="269.914,169.938,279.7396,169.2608,274.3326,167.598,275.9955,162.191,269.914,169.938" style="stroke:#181818;stroke-width:1.0;"/><text fill="#000000" font-family="sans-serif" font-size="11" lengthAdjust="spacing" textLength="18" x="309.5" y="147.2104">5%</text></g><!--MD5=[86f22f7ac4c02d4c87be4ea017256cf3]
    link inflation to incentive boosters--><g id="link_inflation_incentive boosters"><path d="M332.845,116.176 C341.756,130.11 354.669,150.301 364.319,165.39 " fill="none" id="inflation-to-incentive boosters" style="stroke:#181818;stroke-width:1.0;"/><polygon fill="#181818" points="367.201,169.897,365.7218,160.1599,364.5071,165.6848,358.9822,164.4701,367.201,169.897" style="stroke:#181818;stroke-width:1.0;"/><text fill="#000000" font-family="sans-serif" font-size="11" lengthAdjust="spacing" textLength="25" x="354.5" y="147.2104">35%</text></g><!--MD5=[fe534e9af307224ac89f112e9af6ab71]
    link transaction fees to validators rewards--><g id="link_transaction fees_validators rewards"><path d="M351.87,26.958 C267.728,31.086 118.936,43.736 83.5,82 C62.9898,104.147 64.9194,141.448 68.7816,164.842 " fill="none" id="transaction fees-to-validators rewards" style="stroke:#181818;stroke-width:1.0;"/><polygon fill="#181818" points="69.6822,169.899,72.044,160.3375,68.8064,164.9763,64.1677,161.7387,69.6822,169.899" style="stroke:#181818;stroke-width:1.0;"/><text fill="#000000" font-family="sans-serif" font-size="11" lengthAdjust="spacing" textLength="25" x="84.5" y="103.2104">80%</text></g><!--MD5=[fcc525c0dd3b7c634939804490bdb0a6]
    link transaction fees to burn--><g id="link_transaction fees_burn"><path d="M418.165,41.026 C432.16,70.288 461.842,132.352 477.441,164.968 " fill="none" id="transaction fees-to-burn" style="stroke:#181818;stroke-width:1.0;"/><polygon fill="#181818" points="479.637,169.56,479.3633,159.7149,477.4801,165.0491,472.1459,163.1659,479.637,169.56" style="stroke:#181818;stroke-width:1.0;"/><text fill="#000000" font-family="sans-serif" font-size="11" lengthAdjust="spacing" textLength="18" x="455.5" y="103.2104">5%</text></g><!--MD5=[e06fdc4100b45596c76a060ad454966f]
    link transaction fees to incentive boosters--><g id="link_transaction fees_incentive boosters"><path d="M407.374,41.204 C402.745,65.059 393.728,111.023 385.5,150 C384.49,154.784 383.371,159.918 382.297,164.767 " fill="none" id="transaction fees-to-incentive boosters" style="stroke:#181818;stroke-width:1.0;"/><polygon fill="#181818" points="381.157,169.887,387.0183,161.9721,382.2442,165.0066,379.2097,160.2326,381.157,169.887" style="stroke:#181818;stroke-width:1.0;"/><text fill="#000000" font-family="sans-serif" font-size="11" lengthAdjust="spacing" textLength="25" x="400.5" y="103.2104">15%</text></g><!--MD5=[8214a12af63606398b30d01481fad842]
    link module fees to validators rewards--><g id="link_module fees_validators rewards"><path d="M150.631,116.176 C134.974,130.35 112.164,150.999 95.4097,166.166 " fill="none" id="module fees-to-validators rewards" style="stroke:#181818;stroke-width:1.0;"/><polygon fill="#181818" points="91.2886,169.897,100.6448,166.8211,94.9949,166.5409,95.2751,160.891,91.2886,169.897" style="stroke:#181818;stroke-width:1.0;"/><text fill="#000000" font-family="sans-serif" font-size="11" lengthAdjust="spacing" textLength="25" x="128.5" y="147.2104">50%</text></g><!--MD5=[a71b4f79c630dc81f8d584080710d973]
    link module fees to development fund--><g id="link_module fees_development fund"><path d="M163.688,116.327 C161.617,126.625 160.802,139.849 166.5,150 C170.222,156.631 175.717,162.186 181.879,166.79 " fill="none" id="module fees-to-development fund" style="stroke:#181818;stroke-width:1.0;"/><polygon fill="#181818" points="186.238,169.827,181.1416,161.3993,182.136,166.968,176.5672,167.9625,186.238,169.827" style="stroke:#181818;stroke-width:1.0;"/><text fill="#000000" font-family="sans-serif" font-size="11" lengthAdjust="spacing" textLength="25" x="167.5" y="147.2104">30%</text></g><!--MD5=[f60901b9b1951fbca3002fed52547817]
    link module fees to incentive boosters--><g id="link_module fees_incentive boosters"><path d="M206.875,116.07 C219.72,121.878 233.957,128.792 246.5,136 C255.908,141.406 256.788,145.162 266.5,150 C280.674,157.061 296.54,163.166 311.745,168.241 " fill="none" id="module fees-to-incentive boosters" style="stroke:#181818;stroke-width:1.0;"/><polygon fill="#181818" points="316.872,169.922,309.5653,163.3181,312.1206,168.3649,307.0739,170.9203,316.872,169.922" style="stroke:#181818;stroke-width:1.0;"/><text fill="#000000" font-family="sans-serif" font-size="11" lengthAdjust="spacing" textLength="25" x="267.5" y="147.2104">20%</text></g><!--MD5=[032d3d4581a3725394859c1ee8e78628]
    link incentive boosters to governance booster pool--><g id="link_incentive boosters_governance booster pool"><path d="M360.007,204.1759 C344.679,218.3502 322.35,238.9989 305.948,254.1659 " fill="none" id="incentive boosters-to-governance booster pool" style="stroke:#181818;stroke-width:1.0;"/><polygon fill="#181818" points="301.914,257.8966,311.2377,254.7235,305.5852,254.5021,305.8066,248.8496,301.914,257.8966" style="stroke:#181818;stroke-width:1.0;"/><text fill="#000000" font-family="sans-serif" font-size="11" lengthAdjust="spacing" textLength="25" x="338.5" y="235.2104">65%</text></g><!--MD5=[daa7055a60317f1738a7d8b9f2fc8a28]
    link incentive boosters to weekend booster pool--><g id="link_incentive boosters_weekend booster pool"><path d="M395.181,204.1759 C410.673,218.3502 433.243,238.9989 449.821,254.1659 " fill="none" id="incentive boosters-to-weekend booster pool" style="stroke:#181818;stroke-width:1.0;"/><polygon fill="#181818" points="453.899,257.8966,449.9595,248.8699,450.2102,254.5212,444.5589,254.772,453.899,257.8966" style="stroke:#181818;stroke-width:1.0;"/><text fill="#000000" font-family="sans-serif" font-size="11" lengthAdjust="spacing" textLength="25" x="431.5" y="235.2104">35%</text></g><!--MD5=[a5c92516e2363759590778061b1b48a0]
    @startuml
    "inflation" - ->[60%] "validators rewards"
    "inflation" - ->[5%] "development fund"
    "inflation" - ->[35%] "incentive boosters"
    
    "transaction fees" - - ->[80%] "validators rewards"
    "transaction fees" - - ->[5%] "burn"
    "transaction fees" - - ->[15%] "incentive boosters"
    
    "module fees" - ->[50%] "validators rewards"
    "module fees" - ->[30%] "development fund"
    "module fees" - ->[20%] "incentive boosters"
    
    "incentive boosters" - ->[65%] "governance booster pool"
    "incentive boosters" - ->[35%] "weekend booster pool"
    @enduml
    
    PlantUML version 1.2022.13beta2(Unknown compile time)
    (GPL source distribution)
    Java Runtime: Java(TM) SE Runtime Environment
    JVM: Java HotSpot(TM) 64-Bit Server VM
    Default Encoding: UTF-8
    Language: en
    Country: US
    --></g></svg>