<?xml version="1.0" encoding="UTF-8" standalone="no"?><svg xmlns="http://www.w3.org/2000/svg" xmlns:xlink="http://www.w3.org/1999/xlink" contentStyleType="text/css" height="273px" preserveAspectRatio="none" style="width:345px;height:273px;background:#FFFFFF;" version="1.1" viewBox="0 0 345 273" width="345px" zoomAndPan="magnify"><defs/><g><rect fill="#F1F1F1" height="47.9375" rx="12.5" ry="12.5" style="stroke:#181818;stroke-width:0.5;" width="155" x="95.5" y="7"/><text fill="#000000" font-family="sans-serif" font-size="12" lengthAdjust="spacing" textLength="115" x="125.5" y="28.1387">incentive_boosters</text><text fill="#000000" font-family="sans-serif" font-size="12" lengthAdjust="spacing" textLength="135" x="105.5" y="42.1074">&lt;&lt;internal account&gt;&gt;</text><rect fill="#555555" height="8" style="stroke:none;stroke-width:1.0;" width="80" x="133" y="96"/><rect fill="#555555" height="8" style="stroke:none;stroke-width:1.0;" width="80" x="133" y="158"/><rect fill="#F1F1F1" height="47.9375" rx="12.5" ry="12.5" style="stroke:#181818;stroke-width:0.5;" width="156" x="7" y="220"/><text fill="#000000" font-family="sans-serif" font-size="12" lengthAdjust="spacing" textLength="126" x="27" y="241.1387">governance_booster</text><text fill="#000000" font-family="sans-serif" font-size="12" lengthAdjust="spacing" textLength="136" x="17" y="255.1074">&lt;&lt;module account&gt;&gt;</text><rect fill="#F1F1F1" height="47.9375" rx="12.5" ry="12.5" style="stroke:#181818;stroke-width:0.5;" width="156" x="183" y="220"/><text fill="#000000" font-family="sans-serif" font-size="12" lengthAdjust="spacing" textLength="110" x="219" y="241.1387">weekend_booster</text><text fill="#000000" font-family="sans-serif" font-size="12" lengthAdjust="spacing" textLength="136" x="193" y="255.1074">&lt;&lt;module account&gt;&gt;</text><!--MD5=[3e834764db5966b6eef96c7067e78ac9]
    link incentive_boosters\r<<internal account>> to B1--><g id="link_incentive_boosters\r&lt;&lt;internal account&gt;&gt;_B1"><path d="M173,55.058 C173,67.36 173,81.75 173,90.62 " fill="none" id="incentive_boosters\r&lt;&lt;internal account&gt;&gt;-to-B1" style="stroke:#181818;stroke-width:1.0;"/><polygon fill="#181818" points="173,95.785,177,86.785,173,90.785,169,86.785,173,95.785" style="stroke:#181818;stroke-width:1.0;"/></g><!--MD5=[322897656e14e549faf7729e3bd828c3]
    link B1 to B2--><g id="link_B1_B2"><path d="M173,104.226 C173,113.26 173,139.031 173,152.526 " fill="none" id="B1-to-B2" style="stroke:#181818;stroke-width:1.0;"/><polygon fill="#181818" points="173,157.758,177,148.758,173,152.758,169,148.758,173,157.758" style="stroke:#181818;stroke-width:1.0;"/><text fill="#000000" font-family="sans-serif" font-size="11" lengthAdjust="spacing" textLength="129" x="174" y="135.2104">boosters subdistributor</text></g><!--MD5=[258b3c865fbbe2d5bf7b611431583d3a]
    link B2 to governance_booster\r<<module account>>--><g id="link_B2_governance_booster\r&lt;&lt;module account&gt;&gt;"><path d="M169.658,166.038 C160.614,174.2602 134.947,197.5932 114.226,216.4305 " fill="none" id="B2-to-governance_booster\r&lt;&lt;module account&gt;&gt;" style="stroke:#181818;stroke-width:1.0;"/><polygon fill="#181818" points="110.42,219.8909,119.7704,216.7973,114.12,216.5278,114.3895,210.8774,110.42,219.8909" style="stroke:#181818;stroke-width:1.0;"/><text fill="#000000" font-family="sans-serif" font-size="11" lengthAdjust="spacing" textLength="61" x="148" y="197.2104">65% share</text></g><!--MD5=[ea6c8f2aa7a2f24f7c66d5c3c5174380]
    link B2 to weekend_booster\r<<module account>>--><g id="link_B2_weekend_booster\r&lt;&lt;module account&gt;&gt;"><path d="M180.678,166.109 C189.546,169.9354 204.285,177.041 215,186 C225.158,194.4935 234.663,205.5076 242.365,215.5867 " fill="none" id="B2-to-weekend_booster\r&lt;&lt;module account&gt;&gt;" style="stroke:#181818;stroke-width:1.0;"/><polygon fill="#181818" points="245.552,219.839,243.3552,210.2383,242.5533,215.838,236.9536,215.0362,245.552,219.839" style="stroke:#181818;stroke-width:1.0;"/><text fill="#000000" font-family="sans-serif" font-size="11" lengthAdjust="spacing" textLength="61" x="230" y="197.2104">35% share</text></g><!--MD5=[d1a42cd3ccd4209a68201da0399b93f5]
    @startuml
    "incentive_boosters\r<<internal account>>" - -> ===B1===
    
    ===B1=== - ->[boosters subdistributor] ===B2===
    
    ===B2=== - ->[65% share] "governance_booster\r<<module account>>"
    ===B2=== - ->[35% share] "weekend_booster\r<<module account>>"
    @enduml
    
    PlantUML version 1.2022.13beta2(Unknown compile time)
    (GPL source distribution)
    Java Runtime: Java(TM) SE Runtime Environment
    JVM: Java HotSpot(TM) 64-Bit Server VM
    Default Encoding: UTF-8
    Language: en
    Country: US
    --></g></svg>