<?xml version="1.0" encoding="UTF-8" standalone="no"?><svg xmlns="http://www.w3.org/2000/svg" xmlns:xlink="http://www.w3.org/1999/xlink" contentStyleType="text/css" height="273px" preserveAspectRatio="none" style="width:411px;height:273px;background:#FFFFFF;" version="1.1" viewBox="0 0 411 273" width="411px" zoomAndPan="magnify"><defs/><g><rect fill="#F1F1F1" height="47.9375" rx="12.5" ry="12.5" style="stroke:#181818;stroke-width:0.5;" width="156" x="129" y="7"/><text fill="#000000" font-family="sans-serif" font-size="12" lengthAdjust="spacing" textLength="79" x="196" y="28.1387">fee_collector</text><text fill="#000000" font-family="sans-serif" font-size="12" lengthAdjust="spacing" textLength="136" x="139" y="42.1074">&lt;&lt;module account&gt;&gt;</text><rect fill="#555555" height="8" style="stroke:none;stroke-width:1.0;" width="80" x="167" y="96"/><rect fill="#555555" height="8" style="stroke:none;stroke-width:1.0;" width="80" x="167" y="158"/><rect fill="#F1F1F1" height="47.9375" rx="12.5" ry="12.5" style="stroke:#181818;stroke-width:0.5;" width="156" x="7" y="220"/><text fill="#000000" font-family="sans-serif" font-size="12" lengthAdjust="spacing" textLength="115" x="38" y="241.1387">validators_rewards</text><text fill="#000000" font-family="sans-serif" font-size="12" lengthAdjust="spacing" textLength="136" x="17" y="255.1074">&lt;&lt;module account&gt;&gt;</text><rect fill="#F1F1F1" height="33.9688" rx="12.5" ry="12.5" style="stroke:#181818;stroke-width:0.5;" width="47" x="183.5" y="227"/><text fill="#000000" font-family="sans-serif" font-size="12" lengthAdjust="spacing" textLength="27" x="193.5" y="248.1387">burn</text><rect fill="#F1F1F1" height="47.9375" rx="12.5" ry="12.5" style="stroke:#181818;stroke-width:0.5;" width="155" x="250.5" y="220"/><text fill="#000000" font-family="sans-serif" font-size="12" lengthAdjust="spacing" textLength="115" x="280.5" y="241.1387">incentive_boosters</text><text fill="#000000" font-family="sans-serif" font-size="12" lengthAdjust="spacing" textLength="135" x="260.5" y="255.1074">&lt;&lt;internal account&gt;&gt;</text><!--MD5=[3384381838a8ae288235836f5392e52d]
    link fee_collector\r<<module account>> to B1--><g id="link_fee_collector\r&lt;&lt;module account&gt;&gt;_B1"><path d="M207,55.058 C207,67.36 207,81.75 207,90.62 " fill="none" id="fee_collector\r&lt;&lt;module account&gt;&gt;-to-B1" style="stroke:#181818;stroke-width:1.0;"/><polygon fill="#181818" points="207,95.785,211,86.785,207,90.785,203,86.785,207,95.785" style="stroke:#181818;stroke-width:1.0;"/></g><!--MD5=[322897656e14e549faf7729e3bd828c3]
    link B1 to B2--><g id="link_B1_B2"><path d="M207,104.226 C207,113.26 207,139.031 207,152.526 " fill="none" id="B1-to-B2" style="stroke:#181818;stroke-width:1.0;"/><polygon fill="#181818" points="207,157.758,211,148.758,207,152.758,203,148.758,207,157.758" style="stroke:#181818;stroke-width:1.0;"/><text fill="#000000" font-family="sans-serif" font-size="11" lengthAdjust="spacing" textLength="172" x="208" y="135.2104">transaction fees subdistributor</text></g><!--MD5=[f34e11b4a1b321b6260ac36afefd9c53]
    link B2 to validators_rewards\r<<module account>>--><g id="link_B2_validators_rewards\r&lt;&lt;module account&gt;&gt;"><path d="M191.196,166.053 C176.767,169.3523 155.27,175.5875 139,186 C126.524,193.9839 114.911,205.4588 105.6756,216.0231 " fill="none" id="B2-to-validators_rewards\r&lt;&lt;module account&gt;&gt;" style="stroke:#181818;stroke-width:1.0;"/><polygon fill="#181818" points="102.3834,219.8659,111.2766,215.6338,105.6365,216.0689,105.2014,210.4288,102.3834,219.8659" style="stroke:#181818;stroke-width:1.0;"/><text fill="#000000" font-family="sans-serif" font-size="11" lengthAdjust="spacing" textLength="61" x="140" y="197.2104">80% share</text></g><!--MD5=[72e0aad8ec1e7be0efdf0fd2360412a2]
    link B2 to burn--><g id="link_B2_burn"><path d="M207,166.038 C207,175.0127 207,201.9912 207,221.475 " fill="none" id="B2-to-burn" style="stroke:#181818;stroke-width:1.0;"/><polygon fill="#181818" points="207,226.7506,211,217.7506,207,221.7506,203,217.7506,207,226.7506" style="stroke:#181818;stroke-width:1.0;"/><text fill="#000000" font-family="sans-serif" font-size="11" lengthAdjust="spacing" textLength="54" x="208" y="197.2104">5% share</text></g><!--MD5=[70f30875eb70d1d18bf2c6767cd82592]
    link B2 to incentive_boosters\r<<internal account>>--><g id="link_B2_incentive_boosters\r&lt;&lt;internal account&gt;&gt;"><path d="M219.351,166.085 C232.165,169.6353 252.467,176.258 268,186 C281.117,194.2268 293.823,205.6281 304.14,216.0734 " fill="none" id="B2-to-incentive_boosters\r&lt;&lt;internal account&gt;&gt;" style="stroke:#181818;stroke-width:1.0;"/><polygon fill="#181818" points="307.829,219.8707,304.4279,210.6277,304.3454,216.284,298.6892,216.2015,307.829,219.8707" style="stroke:#181818;stroke-width:1.0;"/><text fill="#000000" font-family="sans-serif" font-size="11" lengthAdjust="spacing" textLength="61" x="288" y="197.2104">15% share</text></g><!--MD5=[ff6c624df66ea3e9f26a06474a060595]
    @startuml
    "fee_collector\r<<module account>>" - -> ===B1===
    
    ===B1=== - ->[transaction fees subdistributor] ===B2===
    
    ===B2=== - ->[80% share] "validators_rewards\r<<module account>>"
    ===B2=== - ->[5% share] "burn"
    ===B2=== - ->[15% share] "incentive_boosters\r<<internal account>>"
    @enduml
    
    PlantUML version 1.2022.13beta2(Unknown compile time)
    (GPL source distribution)
    Java Runtime: Java(TM) SE Runtime Environment
    JVM: Java HotSpot(TM) 64-Bit Server VM
    Default Encoding: UTF-8
    Language: en
    Country: US
    --></g></svg>