<?xml version="1.0" encoding="UTF-8" standalone="no"?><svg xmlns="http://www.w3.org/2000/svg" xmlns:xlink="http://www.w3.org/1999/xlink" contentStyleType="text/css" height="232px" preserveAspectRatio="none" style="width:422px;height:232px;background:#FFFFFF;" version="1.1" viewBox="0 0 422 232" width="422px" zoomAndPan="magnify"><defs/><g><rect fill="#F1F1F1" height="33.9688" rx="12.5" ry="12.5" style="stroke:#181818;stroke-width:0.5;" width="74" x="102" y="7"/><text fill="#000000" font-family="sans-serif" font-size="12" lengthAdjust="spacing" textLength="54" x="112" y="28.1387">Source 1</text><rect fill="#555555" height="8" style="stroke:none;stroke-width:1.0;" width="80" x="194" y="82"/><rect fill="#F1F1F1" height="33.9688" rx="12.5" ry="12.5" style="stroke:#181818;stroke-width:0.5;" width="75" x="196.5" y="7"/><text fill="#000000" font-family="sans-serif" font-size="12" lengthAdjust="spacing" textLength="55" x="206.5" y="28.1387">Source 2</text><rect fill="#F1F1F1" height="33.9688" rx="12.5" ry="12.5" style="stroke:#181818;stroke-width:0.5;" width="74" x="292" y="7"/><text fill="#000000" font-family="sans-serif" font-size="12" lengthAdjust="spacing" textLength="54" x="302" y="28.1387">Source n</text><rect fill="#555555" height="8" style="stroke:none;stroke-width:1.0;" width="80" x="194" y="131"/><rect fill="#F1F1F1" height="33.9688" rx="12.5" ry="12.5" style="stroke:#181818;stroke-width:0.5;" width="98" x="7" y="193"/><text fill="#000000" font-family="sans-serif" font-size="12" lengthAdjust="spacing" textLength="78" x="17" y="214.1387">Destination 1</text><rect fill="#F1F1F1" height="33.9688" rx="12.5" ry="12.5" style="stroke:#181818;stroke-width:0.5;" width="99" x="125.5" y="193"/><text fill="#000000" font-family="sans-serif" font-size="12" lengthAdjust="spacing" textLength="79" x="135.5" y="214.1387">Destination 2</text><rect fill="#F1F1F1" height="33.9688" rx="12.5" ry="12.5" style="stroke:#181818;stroke-width:0.5;" width="98" x="245" y="193"/><text fill="#000000" font-family="sans-serif" font-size="12" lengthAdjust="spacing" textLength="78" x="255" y="214.1387">Destination n</text><rect fill="#F1F1F1" height="33.9688" rx="12.5" ry="12.5" style="stroke:#181818;stroke-width:0.5;" width="47" x="363.5" y="193"/><text fill="#000000" font-family="sans-serif" font-size="12" lengthAdjust="spacing" textLength="27" x="373.5" y="214.1387">Burn</text><!--MD5=[05429b9a47e7d14e981ae346e9ace2f2]
link Source 1 to B1--><g id="link_Source 1_B1"><path d="M164.458,41.079 C184.234,53.569 210.559,70.195 224.462,78.976 " fill="none" id="Source 1-to-B1" style="stroke:#181818;stroke-width:1.0;"/><polygon fill="#181818" points="228.987,81.834,223.5139,73.6459,224.7597,79.1639,219.2417,80.4096,228.987,81.834" style="stroke:#181818;stroke-width:1.0;"/></g><!--MD5=[2bea952238dd038f096bcc5c419226fc]
link Source 2 to B1--><g id="link_Source 2_B1"><path d="M234,41.079 C234,52.469 234,67.299 234,76.482 " fill="none" id="Source 2-to-B1" style="stroke:#181818;stroke-width:1.0;"/><polygon fill="#181818" points="234,81.608,238,72.608,234,76.608,230,72.608,234,81.608" style="stroke:#181818;stroke-width:1.0;"/></g><!--MD5=[251d1e0765f0eb2f74db8b6315d7c431]
link Source n to B1--><g id="link_Source n_B1"><path d="M303.542,41.079 C283.766,53.569 257.441,70.195 243.538,78.976 " fill="none" id="Source n-to-B1" style="stroke:#181818;stroke-width:1.0;"/><polygon fill="#181818" points="239.013,81.834,248.7583,80.4096,243.2403,79.1639,244.4861,73.6459,239.013,81.834" style="stroke:#181818;stroke-width:1.0;"/></g><!--MD5=[322897656e14e549faf7729e3bd828c3]
link B1 to B2--><g id="link_B1_B2"><path d="M234,90.084 C234,97.252 234,115.231 234,125.83 " fill="none" id="B1-to-B2" style="stroke:#181818;stroke-width:1.0;"/><polygon fill="#181818" points="234,130.8432,238,121.8432,234,125.8432,230,121.8432,234,130.8432" style="stroke:#181818;stroke-width:1.0;"/></g><!--MD5=[199f76ea687213befb4c31bd0299f5a7]
link B2 to Destination 1--><g id="link_B2_Destination 1"><path d="M215.541,139.0305 C196.615,142.5 166.558,149.0254 142,159 C121.67,167.2573 100.336,179.6343 84.0026,190.0078 " fill="none" id="B2-to-Destination 1" style="stroke:#181818;stroke-width:1.0;"/><polygon fill="#181818" points="79.5334,192.8755,89.2683,191.3817,83.7416,190.1753,84.948,184.6486,79.5334,192.8755" style="stroke:#181818;stroke-width:1.0;"/><text fill="#000000" font-family="sans-serif" font-size="11" lengthAdjust="spacing" textLength="54" x="143" y="170.2104">x% share</text></g><!--MD5=[840792610f412254d2576dd3561a67fc]
link B2 to Destination 2--><g id="link_B2_Destination 2"><path d="M230.915,139.193 C226.734,143.5604 219.094,151.6904 213,159 C205.008,168.5863 196.566,179.5966 189.674,188.8407 " fill="none" id="B2-to-Destination 2" style="stroke:#181818;stroke-width:1.0;"/><polygon fill="#181818" points="186.623,192.9523,195.1979,188.1076,189.6022,188.9368,188.7731,183.341,186.623,192.9523" style="stroke:#181818;stroke-width:1.0;"/><text fill="#000000" font-family="sans-serif" font-size="11" lengthAdjust="spacing" textLength="54" x="214" y="170.2104">y% share</text></g><!--MD5=[a05139c22b2701e657a9888fc503fd71]
link B2 to Destination n--><g id="link_B2_Destination n"><path d="M241.193,139.1121 C249.123,142.8491 261.837,149.7839 270,159 C277.394,167.3475 283.01,178.3753 286.943,187.9498 " fill="none" id="B2-to-Destination n" style="stroke:#181818;stroke-width:1.0;"/><polygon fill="#181818" points="288.847,192.8024,289.2829,182.9632,287.0205,188.1479,281.8357,185.8856,288.847,192.8024" style="stroke:#181818;stroke-width:1.0;"/><text fill="#000000" font-family="sans-serif" font-size="11" lengthAdjust="spacing" textLength="54" x="281" y="170.2104">z% share</text></g><!--MD5=[63bdd636889f0ade67699c3e278b071a]
link B2 to Burn--><g id="link_B2_Burn"><path d="M274.205,138.7805 C295.218,141.6373 320.711,147.3999 341,159 C353.656,166.2359 364.813,178.1392 372.969,188.5166 " fill="none" id="B2-to-Burn" style="stroke:#181818;stroke-width:1.0;"/><polygon fill="#181818" points="376.055,192.554,373.7664,182.9747,373.0182,188.5819,367.411,187.8336,376.055,192.554" style="stroke:#181818;stroke-width:1.0;"/><text fill="#000000" font-family="sans-serif" font-size="11" lengthAdjust="spacing" textLength="54" x="360" y="170.2104">v% share</text></g><!--MD5=[40c93259bd7115290c602ad5b60da918]
@startuml
"Source 1" - -> ===B1===
"Source 2" - -> ===B1===
"Source n" - -> ===B1===

===B1=== - -> ===B2===

===B2=== - ->[x% share] "Destination 1"
===B2=== - ->[y% share]  "Destination 2"
===B2=== - ->[z% share]  "Destination n"
===B2=== - ->[v% share]  "Burn"
@enduml

PlantUML version 1.2022.13beta2(Unknown compile time)
(GPL source distribution)
Java Runtime: Java(TM) SE Runtime Environment
JVM: Java HotSpot(TM) 64-Bit Server VM
Default Encoding: UTF-8
Language: en
Country: US
--></g></svg>